<svg width="3353" height="2768" viewBox="0 0 3353 2768" fill="none" xmlns="http://www.w3.org/2000/svg">
<g clip-path="url(#clip0_645_667)">
<path fill-rule="evenodd" clip-rule="evenodd" d="M2400.99 213C2384.41 213.012 2370.99 226.488 2371 243.094C2370.99 259.699 2384.42 273.175 2401.01 273.188H2431.01V243.106C2431.02 226.501 2417.59 213.025 2400.99 213C2401.01 213 2401.01 213 2400.99 213ZM2400.99 293.267H2321C2304.42 293.279 2290.99 306.755 2291 323.361C2290.98 339.966 2304.41 353.442 2320.99 353.467H2400.99C2417.58 353.454 2431.01 339.978 2431 323.373C2431.01 306.755 2417.58 293.279 2400.99 293.267Z" fill="#36C5F0"/>
<path fill-rule="evenodd" clip-rule="evenodd" d="M2591 323.361C2591.01 306.755 2577.58 293.279 2561 293.267C2544.41 293.279 2530.98 306.755 2530.99 323.361V353.467H2561C2577.58 353.454 2591.01 339.978 2591 323.361ZM2511 323.361V243.094C2511.01 226.501 2497.59 213.025 2481.01 213C2464.42 213.012 2450.99 226.488 2451 243.094V323.361C2450.98 339.966 2464.41 353.442 2480.99 353.467C2497.58 353.454 2511.01 339.978 2511 323.361Z" fill="#2EB67D"/>
<path fill-rule="evenodd" clip-rule="evenodd" d="M2481 514C2497.58 513.988 2511.01 500.512 2511 483.907C2511.01 467.301 2497.58 453.825 2481 453.813H2450.99V483.907C2450.98 500.5 2464.41 513.976 2481 514ZM2481 433.721H2561C2577.58 433.709 2591.01 420.233 2591 403.628C2591.03 387.022 2577.59 373.546 2561.01 373.521H2481.01C2464.42 373.534 2450.99 387.01 2451 403.615C2450.99 420.233 2464.41 433.709 2481 433.721Z" fill="#ECB22E"/>
<path fill-rule="evenodd" clip-rule="evenodd" d="M2291 403.627C2290.99 420.233 2304.42 433.709 2321 433.721C2337.59 433.709 2351.02 420.233 2351.01 403.627V373.533H2321C2304.42 373.545 2290.99 387.021 2291 403.627ZM2371 403.627V483.894C2370.98 500.499 2384.41 513.975 2400.99 514C2417.58 513.988 2431.01 500.512 2431 483.906V403.652C2431.02 387.046 2417.59 373.57 2401.01 373.545C2384.41 373.545 2370.99 387.021 2371 403.627Z" fill="#E01E5A"/>
</g>
<g clip-path="url(#clip1_645_667)">
<path d="M1721.57 624.999H1767.23V514.555L1702 465.83V605.51C1702 616.278 1710.76 625 1721.57 625V624.999Z" fill="#4285F4"/>
<path d="M1923.77 624.999H1969.43C1980.24 624.999 1989 616.277 1989 605.509V465.83L1923.77 514.555V624.999Z" fill="#34A853"/>
<path d="M1923.77 430.098V514.555L1989 465.83V439.843C1989 415.757 1961.39 402 1942.04 416.455L1923.77 430.098Z" fill="#FBBC04"/>
<path fill-rule="evenodd" clip-rule="evenodd" d="M1767.23 514.555V430.098L1845.5 488.568L1923.77 430.098V514.555L1845.5 573.025L1767.23 514.555Z" fill="#EA4335"/>
<path d="M1702 439.843V465.83L1767.23 514.555V430.098L1748.96 416.455C1729.61 402 1702 415.757 1702 439.842V439.843Z" fill="#C5221F"/>
</g>
<g clip-path="url(#clip2_645_667)">
<path d="M1297 862C1192.08 862 1107 947.044 1107 1051.95C1107 1135.88 1161.44 1207.08 1236.93 1232.2C1246.43 1233.96 1249.92 1228.08 1249.92 1223.06C1249.92 1218.53 1249.74 1203.57 1249.66 1187.7C1196.8 1199.19 1185.65 1165.29 1185.65 1165.29C1177 1143.33 1164.55 1137.49 1164.55 1137.49C1147.31 1125.7 1165.85 1125.94 1165.85 1125.94C1184.93 1127.28 1194.97 1145.52 1194.97 1145.52C1211.92 1174.56 1239.42 1166.16 1250.27 1161.31C1251.97 1149.03 1256.9 1140.65 1262.33 1135.91C1220.13 1131.11 1175.76 1114.82 1175.76 1042.03C1175.76 1021.29 1183.19 1004.35 1195.34 991.046C1193.37 986.261 1186.86 966.943 1197.18 940.777C1197.18 940.777 1213.14 935.672 1249.45 960.248C1264.6 956.04 1280.85 953.929 1297 953.857C1313.15 953.929 1329.42 956.038 1344.6 960.248C1380.86 935.673 1396.8 940.778 1396.8 940.778C1407.14 966.941 1400.63 986.263 1398.66 991.046C1410.84 1004.35 1418.21 1021.29 1418.21 1042.03C1418.21 1114.99 1373.77 1131.06 1331.46 1135.76C1338.27 1141.65 1344.34 1153.21 1344.34 1170.93C1344.34 1196.35 1344.12 1216.81 1344.12 1223.06C1344.12 1228.12 1347.54 1234.04 1357.18 1232.17C1432.63 1207.03 1487 1135.85 1487 1051.95C1487 947.044 1401.93 862 1297 862ZM1178.16 1132.59C1177.74 1133.54 1176.26 1133.82 1174.91 1133.17C1173.53 1132.55 1172.75 1131.27 1173.2 1130.32C1173.61 1129.35 1175.1 1129.08 1176.47 1129.73C1177.85 1130.35 1178.64 1131.65 1178.16 1132.59ZM1187.51 1140.93C1186.6 1141.77 1184.83 1141.38 1183.63 1140.05C1182.39 1138.73 1182.15 1136.96 1183.07 1136.11C1184.01 1135.27 1185.72 1135.66 1186.97 1136.98C1188.21 1138.32 1188.45 1140.08 1187.51 1140.93ZM1193.92 1151.6C1192.76 1152.41 1190.85 1151.65 1189.68 1149.96C1188.51 1148.27 1188.51 1146.24 1189.7 1145.43C1190.88 1144.62 1192.76 1145.35 1193.95 1147.03C1195.11 1148.74 1195.11 1150.77 1193.92 1151.6L1193.92 1151.6ZM1204.76 1163.95C1203.72 1165.1 1201.5 1164.79 1199.88 1163.22C1198.22 1161.69 1197.76 1159.52 1198.8 1158.37C1199.86 1157.22 1202.09 1157.54 1203.72 1159.1C1205.37 1160.63 1205.87 1162.82 1204.76 1163.95ZM1218.78 1168.12C1218.32 1169.61 1216.18 1170.29 1214.03 1169.65C1211.88 1169 1210.47 1167.26 1210.91 1165.76C1211.35 1164.26 1213.5 1163.55 1215.67 1164.23C1217.81 1164.88 1219.22 1166.61 1218.78 1168.12ZM1234.73 1169.89C1234.78 1171.46 1232.96 1172.76 1230.7 1172.79C1228.42 1172.84 1226.59 1171.57 1226.56 1170.02C1226.56 1168.44 1228.34 1167.16 1230.62 1167.12C1232.88 1167.07 1234.73 1168.33 1234.73 1169.89ZM1250.39 1169.29C1250.66 1170.82 1249.09 1172.39 1246.85 1172.81C1244.65 1173.21 1242.6 1172.27 1242.32 1170.75C1242.05 1169.18 1243.65 1167.61 1245.85 1167.21C1248.1 1166.82 1250.11 1167.74 1250.39 1169.29Z" fill="black"/>
</g>
<g clip-path="url(#clip3_645_667)">
<path d="M1481.62 1955.4L1481.22 1954.2L1437.85 1841.06C1436.96 1838.85 1435.39 1836.97 1433.37 1835.7C1431.34 1834.43 1428.97 1833.83 1426.59 1833.98C1424.2 1833.98 1421.9 1834.98 1420.01 1836.37C1418.12 1837.87 1416.72 1839.96 1416.12 1842.35L1386.81 1932.07H1268.19L1238.88 1842.35C1238.29 1840.01 1236.96 1837.91 1235.1 1836.37C1233.23 1834.83 1230.93 1833.92 1228.51 1833.78C1226.1 1833.63 1223.71 1834.24 1221.67 1835.53C1219.63 1836.82 1218.04 1838.72 1217.15 1840.96L1173.78 1954.4L1173.28 1955.5C1167.07 1971.82 1166.31 1989.72 1171.13 2006.51C1175.95 2023.29 1186.08 2038.07 1200 2048.61L1200.2 2048.71L1200.6 2049.01L1266.69 2098.55L1299.39 2123.27L1319.33 2138.43C1321.66 2140.17 1324.49 2141.12 1327.4 2141.12C1330.31 2141.12 1333.15 2140.17 1335.48 2138.43L1355.41 2123.27L1388.11 2098.55L1454.6 2048.71H1454.8C1468.81 2038.19 1479.02 2023.39 1483.88 2006.56C1488.73 1989.72 1487.98 1971.77 1481.72 1955.4H1481.62Z" fill="#E24329"/>
<path d="M1481.62 1955.4L1481.22 1954.2C1460.05 1958.58 1440.1 1967.56 1422.8 1980.52L1327.6 2052.7L1388.31 2098.55L1454.8 2048.71H1455C1468.96 2038.15 1479.11 2023.34 1483.91 2006.5C1488.71 1989.67 1487.91 1971.73 1481.62 1955.4Z" fill="#FC6D26"/>
<path d="M1266.69 2098.55L1299.39 2123.27L1319.33 2138.43C1321.66 2140.17 1324.49 2141.12 1327.4 2141.12C1330.31 2141.12 1333.15 2140.17 1335.48 2138.43L1355.41 2123.27L1388.11 2098.55L1327.3 2052.7L1266.79 2098.55H1266.69Z" fill="#FCA326"/>
<path d="M1232.2 1980.52C1214.9 1967.59 1194.95 1958.63 1173.78 1954.3L1173.28 1955.5C1167.07 1971.82 1166.31 1989.72 1171.13 2006.5C1175.95 2023.29 1186.08 2038.07 1200 2048.61L1200.2 2048.71L1200.6 2049.01L1266.69 2098.55L1327.5 2052.7L1232.2 1980.52Z" fill="#FC6D26"/>
</g>
<path d="M1863.66 2232.75L1866.45 2245.26C1866.45 2249.43 1867.84 2252.21 1870.62 2256.38V2259.16L1869.23 2263.33L1859.49 2268.89L1856.71 2270.28L1852.53 2268.89L1846.97 2261.94L1842.79 2253.6C1831.66 2266.11 1817.75 2273.06 1802.44 2273.06C1789.92 2273.06 1780.18 2268.89 1774.61 2261.94C1767.65 2256.38 1763.48 2246.65 1763.48 2235.53C1763.48 2224.41 1767.65 2214.68 1776 2207.73C1784.35 2199.38 1795.48 2196.6 1810.79 2196.6C1821.14 2196.55 1831.44 2197.95 1841.4 2200.78V2191.04C1841.4 2179.92 1838.62 2172.97 1834.44 2168.8C1830.27 2163.24 1823.31 2161.85 1812.18 2161.85L1796.88 2163.24C1790.18 2164.95 1783.66 2167.28 1777.39 2170.19H1774.61C1773.22 2170.19 1771.83 2168.8 1771.83 2166.02V2159.07L1773.22 2154.9C1773.22 2153.51 1774.61 2152.12 1777.39 2152.12L1794.09 2145.17L1816.36 2142.39C1833.05 2142.39 1844.18 2146.56 1852.53 2153.51C1859.49 2161.85 1863.66 2172.97 1863.66 2188.26V2232.75ZM1808.01 2254.99L1821.92 2252.21C1827.49 2250.82 1831.66 2246.65 1835.84 2242.48L1840.01 2234.14L1841.4 2221.63V2216.07C1832.72 2214.14 1823.85 2213.21 1814.96 2213.29C1806.62 2213.29 1799.66 2214.68 1794.09 2218.85C1789.92 2221.63 1788.53 2227.19 1788.53 2234.14C1788.53 2241.09 1789.92 2245.26 1792.7 2249.43C1796.88 2252.21 1801.05 2254.99 1808.01 2254.99ZM1919.32 2268.89L1913.76 2267.5L1910.97 2263.33L1878.97 2154.9L1877.58 2149.34L1880.36 2146.56H1894.28L1899.84 2147.95L1902.63 2153.51L1926.28 2245.26L1947.15 2153.51L1949.93 2147.95L1955.5 2146.56H1966.63L1972.2 2147.95L1974.98 2153.51L1997.24 2246.65L2020.9 2153.51L2023.68 2147.95L2029.25 2146.56H2041.77C2044.55 2146.56 2045.94 2147.95 2045.94 2149.34V2152.12L2044.55 2154.9L2011.16 2263.33L2008.38 2268.89L2002.81 2270.28H1990.29L1984.72 2268.89L1983.33 2263.33L1961.07 2172.97L1940.19 2261.94L1937.41 2267.5L1931.85 2268.89H1919.32ZM2098.82 2273.06C2085.85 2272.96 2073.04 2270.12 2061.25 2264.72L2057.08 2260.55L2055.68 2257.77V2250.82C2055.68 2248.04 2057.08 2246.65 2058.47 2246.65H2061.25L2065.42 2248.04C2075.45 2252.68 2086.38 2255.05 2097.43 2254.99C2105.78 2254.99 2112.73 2252.21 2116.91 2249.43C2122.47 2246.65 2123.87 2242.48 2123.87 2236.92L2121.08 2227.19L2107.17 2220.24L2086.3 2213.29C2076.56 2210.51 2068.21 2204.95 2064.03 2199.38C2061.33 2195.85 2059.36 2191.8 2058.25 2187.49C2057.13 2183.18 2056.89 2178.69 2057.54 2174.29C2058.19 2169.88 2059.71 2165.65 2062.02 2161.85C2064.33 2158.04 2067.38 2154.73 2070.99 2152.12L2084.9 2145.17C2093.84 2142.11 2103.37 2141.16 2112.73 2142.39C2118.37 2143.47 2123.95 2144.86 2129.43 2146.56L2135 2149.34L2139.17 2152.12L2140.56 2157.68V2163.24C2140.56 2167.41 2139.17 2168.8 2137.78 2168.8L2132.21 2166.02C2123.87 2163.24 2115.52 2161.85 2105.78 2161.85C2097.43 2161.85 2090.47 2161.85 2086.3 2164.63C2082.12 2167.41 2080.73 2171.58 2080.73 2177.14C2080.73 2181.31 2082.12 2184.09 2084.9 2186.87C2087.69 2189.65 2091.86 2192.43 2100.21 2195.21L2119.69 2200.78C2129.43 2204.95 2136.39 2209.12 2140.56 2214.68C2144.74 2220.24 2147.52 2227.19 2147.52 2234.14L2143.35 2250.82L2133.61 2261.94C2129.43 2266.11 2123.87 2268.89 2118.3 2270.28L2098.82 2273.06Z" fill="#252F3E"/>
<path fill-rule="evenodd" clip-rule="evenodd" d="M2125.26 2341.18C2068.5 2379.05 2000.69 2396.88 1932.62 2391.85C1864.55 2386.81 1800.12 2359.19 1749.57 2313.37C1744 2309.2 1748.17 2305.03 1752.35 2307.81C1807.63 2339.1 1869.33 2357.37 1932.75 2361.22C1996.17 2365.07 2059.63 2354.42 2118.3 2330.06C2125.26 2327.27 2132.21 2335.62 2125.26 2341.18Z" fill="#FF9900"/>
<path fill-rule="evenodd" clip-rule="evenodd" d="M2143.35 2318.93C2137.78 2311.98 2104.38 2314.76 2090.47 2317.54C2084.9 2317.54 2084.9 2313.37 2089.08 2310.59C2115.52 2292.52 2158.65 2298.08 2162.83 2303.64C2168.39 2310.59 2161.43 2353.69 2137.78 2374.54C2133.61 2377.32 2129.43 2375.93 2130.82 2371.76C2137.78 2357.86 2148.91 2325.88 2143.35 2318.93Z" fill="#FF9900"/>
<path fill-rule="evenodd" clip-rule="evenodd" d="M2869.01 782.968L2894.92 756.085H2684.52V782.968H2869.01Z" fill="black"/>
<path d="M2867.05 862.457L2967.56 759.109L2930.93 759.108L2846.55 845.095L2867.05 862.457Z" fill="black"/>
<path d="M2944.83 901.607C2944.83 927.998 2923.42 949.394 2897.01 949.394C2875.68 949.394 2857.6 935.431 2851.44 916.133L2847.67 904.318L2826.13 925.843L2828.1 930.52C2839.4 957.389 2865.99 976.279 2897.01 976.279C2938.28 976.279 2971.73 942.848 2971.73 901.607C2971.73 874.296 2956.82 850.649 2935.11 837.654L2930.02 834.605L2910.3 854.568L2919.3 859.316C2934.5 867.334 2944.83 883.27 2944.83 901.607Z" fill="black"/>
<path fill-rule="evenodd" clip-rule="evenodd" d="M2782.52 969.938L2782.52 805.922H2755.62V969.938H2782.52Z" fill="black"/>
<g clip-path="url(#clip4_645_667)">
<path d="M2882.77 1922.51C2880.31 1916.35 2875.39 1912.66 2869.23 1911.43L2859.39 1912.66L2842.16 1915.12C2856.93 1890.5 2869.23 1862.19 2875.39 1835.1C2886.46 1793.25 2881.54 1773.55 2874.16 1764.93C2865.18 1753.27 2853.61 1743.87 2840.37 1737.46C2827.13 1731.05 2812.58 1727.81 2797.87 1728C2780.64 1728 2764.64 1731.69 2757.26 1734.16L2733.88 1731.69C2719.12 1731.69 2704.35 1735.39 2693.28 1741.54L2664.98 1734.16C2636.68 1730.46 2613.3 1734.16 2597.3 1745.24C2577.61 1760.01 2567.77 1784.63 2569 1819.1C2574.52 1860.39 2586.13 1900.63 2603.45 1938.51C2612.07 1955.75 2620.68 1965.59 2631.75 1968.06C2637.91 1970.52 2647.75 1971.75 2658.82 1963.13L2664.98 1968.06L2676.05 1971.75C2689.59 1975.44 2703.12 1974.21 2714.19 1970.52C2714.23 1974.62 2714.23 1978.73 2714.19 1982.83C2714.15 1996.61 2716.22 2010.31 2720.35 2023.45C2721.58 2028.38 2725.27 2037 2731.42 2043.15C2738.8 2050.54 2747.42 2053 2756.03 2053L2767.1 2051.77C2779.41 2049.31 2792.94 2044.38 2802.79 2030.84C2812.63 2017.3 2816.32 1997.6 2817.55 1965.59V1963.13L2818.78 1960.67L2820.01 1961.9H2821.25C2833.55 1961.9 2848.32 1959.44 2858.16 1954.52C2864.31 1952.05 2887.69 1939.74 2882.77 1922.51Z" fill="black"/>
<path d="M2861.85 1926.2C2824.94 1933.59 2822.48 1921.28 2822.48 1921.28C2861.85 1863.42 2877.85 1790.78 2863.08 1773.55C2824.94 1724.31 2759.72 1747.7 2758.49 1747.7L2733.88 1745.23C2716.66 1745.23 2704.35 1750.16 2694.51 1757.55C2694.51 1757.55 2577.61 1708.3 2582.54 1817.87C2583.77 1841.26 2616.99 1993.91 2655.13 1948.36L2682.2 1916.35C2689.59 1921.28 2696.97 1923.74 2705.58 1922.51H2706.81V1928.66C2696.97 1939.74 2699.43 1940.97 2679.74 1945.9C2660.06 1949.59 2671.13 1956.98 2679.74 1959.44C2688.36 1961.9 2710.5 1964.36 2724.04 1944.67V1947.13C2727.73 1949.59 2730.19 1966.83 2730.19 1982.83C2728.96 1997.6 2728.96 2008.68 2732.65 2016.07C2735.11 2024.69 2738.81 2043.15 2764.65 2038.23C2785.56 2033.3 2797.87 2020.99 2799.1 2001.3C2800.33 1986.52 2802.79 1988.98 2802.79 1976.67L2804.02 1970.52C2806.48 1950.82 2805.25 1944.67 2818.79 1947.13L2821.25 1948.36C2831.09 1948.36 2844.63 1945.9 2852.01 1942.2C2868 1934.82 2877.85 1922.51 2861.85 1926.2Z" fill="#336791"/>
<path d="M2701.89 1828.95H2694.51L2693.28 1831.41L2694.51 1835.1C2695.74 1837.56 2698.2 1838.8 2700.66 1838.8H2701.89C2705.58 1838.8 2709.27 1836.33 2709.27 1833.87C2710.5 1831.41 2705.58 1828.95 2701.89 1828.95ZM2811.4 1828.95C2811.4 1826.48 2806.48 1825.25 2802.79 1826.48C2799.1 1826.48 2795.41 1827.72 2795.41 1830.18C2796.64 1832.64 2799.1 1835.1 2802.79 1835.1H2804.02L2808.94 1832.64L2811.4 1828.95Z" fill="white"/>
<path d="M2874.16 1924.97C2872.93 1921.28 2868 1918.81 2860.62 1921.28C2838.47 1924.97 2831.09 1922.51 2827.4 1920.05C2844.62 1894.19 2859.39 1862.19 2866.77 1832.64C2870.46 1819.1 2872.93 1805.56 2872.93 1795.71C2872.93 1783.4 2870.46 1774.78 2866.77 1769.86C2858.5 1759.21 2847.84 1750.66 2835.66 1744.89C2823.48 1739.11 2810.11 1736.28 2796.64 1736.62C2776.95 1736.62 2759.72 1741.54 2756.03 1744C2749.88 1741.54 2741.27 1740.31 2733.88 1740.31C2717.89 1740.31 2705.58 1744 2694.51 1751.39C2689.59 1748.93 2677.28 1745.24 2662.52 1742.77C2636.68 1739.08 2616.99 1741.54 2602.22 1752.62C2585 1764.93 2576.38 1787.09 2578.84 1817.87C2578.84 1827.72 2585 1860.95 2594.84 1891.73C2607.14 1932.36 2620.68 1954.52 2634.21 1959.44L2640.37 1960.67C2645.29 1960.67 2651.44 1958.21 2657.59 1949.59L2683.43 1922.51C2688.36 1924.97 2694.51 1926.2 2700.66 1926.2V1927.43L2698.2 1931.13C2693.28 1937.28 2692.05 1937.28 2678.51 1940.97C2674.82 1940.97 2663.75 1943.44 2663.75 1950.82C2663.75 1959.44 2676.05 1963.13 2677.28 1963.13L2692.05 1964.36C2703.12 1964.36 2712.96 1960.67 2721.58 1954.52C2720.35 1982.83 2721.58 2011.14 2725.27 2019.76C2728.96 2027.15 2735.11 2044.38 2757.26 2044.38L2768.34 2043.15C2790.48 2038.23 2800.33 2028.38 2804.02 2006.22L2811.4 1950.82L2824.94 1952.05C2834.78 1952.05 2845.86 1949.59 2853.24 1945.9C2861.85 1942.2 2876.62 1933.59 2874.16 1924.97ZM2820.02 1822.79L2818.78 1835.1L2816.32 1849.88L2817.55 1867.11C2818.78 1878.19 2821.25 1890.5 2815.09 1901.58L2812.63 1896.66L2808.94 1889.27C2800.33 1874.5 2781.87 1841.26 2791.71 1827.72C2794.18 1824.02 2801.56 1820.33 2820.02 1822.79ZM2797.87 1746.47C2823.71 1746.47 2844.62 1756.31 2859.39 1774.78C2870.46 1789.55 2858.16 1854.8 2822.48 1911.43L2821.25 1910.2C2829.86 1894.19 2828.63 1879.42 2827.4 1865.88L2826.17 1849.88L2827.4 1836.33C2828.54 1829.83 2828.95 1823.23 2828.63 1816.64C2828.63 1810.48 2821.25 1792.02 2806.48 1774.78C2799.1 1766.16 2786.79 1755.08 2772.03 1748.93L2797.87 1746.47ZM2651.44 1944.67C2644.06 1953.28 2639.14 1952.05 2636.68 1950.82C2626.83 1947.13 2613.3 1924.97 2603.45 1888.04C2593.61 1857.26 2587.46 1826.49 2587.46 1817.87C2586.23 1789.55 2592.38 1769.86 2607.14 1760.01C2631.75 1742.77 2671.13 1752.62 2685.89 1757.55V1758.78C2660.05 1784.63 2660.05 1828.95 2660.05 1832.64V1836.33C2661.28 1844.95 2662.52 1858.49 2660.05 1874.5C2658.86 1882.15 2659.58 1889.98 2662.16 1897.29C2664.74 1904.59 2669.09 1911.14 2674.82 1916.35L2651.44 1944.67ZM2678.51 1907.74C2671.13 1899.12 2667.44 1888.04 2668.67 1875.73C2671.13 1858.49 2669.9 1843.72 2669.9 1836.33V1833.87C2673.59 1830.18 2690.82 1820.33 2703.12 1824.02C2709.27 1825.25 2712.96 1828.95 2714.19 1835.1C2721.58 1869.57 2715.43 1884.34 2709.27 1896.66L2706.81 1902.81L2705.58 1905.27L2701.89 1917.58C2693.28 1917.58 2684.66 1913.89 2678.51 1907.74ZM2679.74 1954.52L2673.59 1952.05L2680.97 1949.59C2696.97 1945.9 2699.43 1943.44 2704.35 1937.28L2709.27 1931.13C2712.96 1927.43 2714.19 1928.66 2716.66 1929.89C2717.89 1929.89 2720.35 1932.36 2721.58 1936.05L2720.35 1940.97C2709.27 1956.98 2692.05 1956.98 2679.74 1954.52ZM2765.87 2034.53C2746.19 2038.23 2738.8 2028.38 2733.88 2016.07C2729.5 1988.81 2728.26 1961.13 2730.19 1933.59C2727.73 1927.43 2724.04 1922.51 2720.35 1921.28C2717.89 1920.05 2714.19 1918.81 2710.5 1920.05L2714.19 1907.74L2715.43 1906.5L2717.89 1900.35C2724.04 1888.04 2731.42 1870.8 2722.81 1833.87C2720.35 1819.1 2709.27 1812.94 2694.51 1814.17C2685.82 1815.39 2677.45 1818.32 2669.9 1822.79C2671.13 1808.02 2676.05 1782.17 2692.05 1764.93C2703.12 1755.08 2716.66 1748.93 2733.88 1750.16C2767.11 1750.16 2788.02 1767.39 2800.33 1782.17C2810.17 1794.48 2816.32 1806.79 2818.78 1812.94C2801.56 1811.71 2790.48 1814.17 2784.33 1822.79C2772.03 1841.26 2791.71 1876.96 2800.33 1892.96L2804.02 1900.35L2813.86 1916.35L2816.32 1918.81C2811.4 1921.28 2802.79 1923.74 2802.79 1940.97L2795.41 2003.76C2791.71 2023.45 2785.56 2029.61 2765.87 2034.53ZM2849.55 1938.51C2844.62 1940.97 2836.01 1942.2 2827.4 1942.2C2817.55 1943.44 2813.86 1942.2 2812.63 1940.97C2811.4 1929.89 2816.32 1928.66 2820.02 1927.43H2822.48L2823.71 1928.66C2831.09 1933.59 2843.39 1933.59 2861.85 1929.89H2863.08L2849.55 1938.51Z" fill="white"/>
</g>
<g clip-path="url(#clip5_645_667)">
<path d="M1588.82 1564C1588.82 1535.46 1611.73 1512.63 1641 1512.63C1670.27 1512.63 1693.82 1535.46 1693.82 1564C1693.82 1591.9 1670.27 1614.73 1641 1614.73C1611.73 1614.73 1588.82 1591.9 1588.82 1564ZM1668.36 1564C1668.36 1556.77 1665.48 1549.83 1660.35 1544.72C1655.22 1539.6 1648.26 1536.73 1641 1536.73C1633.74 1536.73 1626.78 1539.6 1621.65 1544.72C1616.52 1549.83 1613.64 1556.77 1613.64 1564C1613.64 1571.23 1616.52 1578.17 1621.65 1583.28C1626.78 1588.4 1633.74 1591.27 1641 1591.27C1648.26 1591.27 1655.22 1588.4 1660.35 1583.28C1665.48 1578.17 1668.36 1571.23 1668.36 1564ZM2117.64 1564.63C2117.64 1533.56 2143.09 1512.63 2166 1512.63C2181.27 1512.63 2190.18 1517.71 2196.55 1526.59L2198.45 1514.54H2222V1612.83H2198.45L2195.91 1602.68C2188.91 1610.29 2180 1614.73 2166 1614.73C2143.09 1614.73 2117.64 1595.07 2117.64 1564.63ZM2197.82 1564.63C2197.82 1549.41 2185.09 1537.37 2170.45 1537.37C2155.18 1537.37 2143.09 1549.41 2143.09 1564.63C2143.09 1577.95 2155.18 1590.63 2169.82 1590.63C2185.09 1590.63 2197.82 1577.95 2197.82 1564.63ZM2089 1525.95V1514.54H2063.55V1612.83H2089V1560.2C2089 1543.71 2096.64 1535.46 2110.64 1535.46L2113.18 1536.1L2117.64 1512C2104.27 1512 2094.73 1516.44 2089 1525.95ZM1831.91 1525.95V1514.54H1805.82L1806.45 1612.83H1831.91V1560.2C1831.91 1543.71 1839.55 1535.46 1853.55 1535.46L1856.09 1536.1L1860.55 1512C1847.18 1512 1837.64 1516.44 1831.91 1525.95ZM1702.73 1574.78V1514.54H1728.18V1571.61C1728.18 1584.29 1735.18 1591.9 1747.91 1591.9C1761.27 1591.9 1769.55 1583.66 1769.55 1567.8V1514.54H1795V1612.83H1769.55V1601.41C1763.18 1610.93 1753.64 1615.37 1739.64 1615.37C1716.73 1615.37 1702.73 1598.88 1702.73 1574.78ZM1952.18 1564C1952.18 1536.1 1971.91 1512.63 2003.09 1512.63C2032.36 1512.63 2052.73 1536.1 2052.73 1563.37L2052.09 1571.61H1977C1979.55 1583.02 1989.73 1591.9 2004.36 1591.9C2013.27 1591.9 2022.82 1588.73 2028.55 1581.12L2046.36 1595.07C2041.43 1601.43 2035.04 1606.53 2027.74 1609.95C2020.44 1613.37 2012.43 1615.01 2004.36 1614.73C1974.45 1614.73 1952.18 1592.54 1952.18 1564ZM2027.27 1553.85C2025.36 1543.71 2015.18 1536.1 2003.09 1536.1C1991 1536.1 1981.45 1543.07 1977.64 1553.22L2027.27 1553.85ZM1860.55 1591.9L1883.45 1579.85C1887.27 1588.1 1894.91 1592.54 1905.73 1592.54C1915.27 1592.54 1919.09 1589.37 1919.09 1584.93C1919.09 1569.07 1865 1578.59 1865 1542.44C1865 1522.78 1882.82 1512 1904.45 1512C1921 1512 1935.64 1519.61 1943.27 1532.93L1921 1544.98C1917.82 1538 1911.45 1534.2 1903.18 1534.2C1895.55 1534.2 1891.73 1537.37 1891.73 1541.8C1891.73 1557.02 1945.82 1547.51 1945.82 1584.29C1945.82 1603.32 1929.91 1614.73 1905.09 1614.73C1883.45 1614.73 1868.18 1607.76 1860.55 1591.9ZM1487 1564C1487 1535.46 1510.55 1512.63 1539.18 1512.63C1557 1512.63 1574.18 1520.88 1583.73 1536.1L1562.09 1548.78C1559.57 1545.04 1556.16 1541.99 1552.16 1539.88C1548.16 1537.78 1543.7 1536.7 1539.18 1536.73C1524.55 1536.73 1512.45 1549.41 1512.45 1564C1512.45 1577.95 1524.55 1590.63 1539.18 1590.63C1543.87 1590.71 1548.49 1589.58 1552.62 1587.36C1556.74 1585.14 1560.22 1581.9 1562.73 1577.95L1584.36 1590.63C1578.3 1600.13 1569.35 1607.44 1558.81 1611.5C1548.27 1615.55 1536.7 1616.13 1525.81 1613.15C1514.92 1610.17 1505.27 1603.79 1498.29 1594.94C1491.3 1586.1 1487.35 1575.25 1487 1564Z" fill="#0056D2"/>
</g>
<path d="M2220.77 976.5C2134.2 976.5 2139.61 1014.04 2139.61 1014.04L2139.71 1052.94H2222.32V1064.61H2106.88C2106.88 1064.61 2051.5 1058.32 2051.5 1145.68C2051.5 1233.02 2099.85 1229.93 2099.85 1229.93H2128.7V1189.39C2128.7 1189.39 2127.15 1141.04 2176.28 1141.04H2258.21C2258.21 1141.04 2304.24 1141.79 2304.24 1096.55V1021.76C2304.24 1021.76 2311.24 976.5 2220.77 976.5ZM2175.22 1002.65C2179.16 1002.65 2182.94 1004.22 2185.73 1007C2188.52 1009.79 2190.08 1013.57 2190.08 1017.52C2190.08 1021.46 2188.52 1025.24 2185.73 1028.03C2182.94 1030.82 2179.16 1032.38 2175.22 1032.38C2173.27 1032.38 2171.33 1032 2169.53 1031.26C2167.72 1030.51 2166.08 1029.41 2164.7 1028.03C2163.32 1026.65 2162.23 1025.01 2161.48 1023.21C2160.73 1021.4 2160.35 1019.47 2160.35 1017.52C2160.35 1009.3 2167 1002.65 2175.22 1002.65Z" fill="url(#paint0_linear_645_667)"/>
<path d="M2223.22 1315.72C2309.8 1315.72 2304.39 1278.18 2304.39 1278.18L2304.29 1239.28H2221.68V1227.61H2337.11C2337.11 1227.61 2392.5 1233.9 2392.5 1146.55C2392.5 1059.2 2344.15 1062.3 2344.15 1062.3H2315.29V1102.83C2315.29 1102.83 2316.85 1151.18 2267.71 1151.18H2185.79C2185.79 1151.18 2139.75 1150.43 2139.75 1195.67V1270.46C2139.75 1270.46 2132.76 1315.72 2223.22 1315.72ZM2268.78 1289.57C2266.83 1289.57 2264.89 1289.19 2263.09 1288.44C2261.28 1287.7 2259.64 1286.6 2258.26 1285.22C2256.88 1283.84 2255.79 1282.2 2255.04 1280.4C2254.29 1278.59 2253.91 1276.66 2253.91 1274.7C2253.92 1271.77 2254.79 1268.9 2256.42 1266.46C2258.06 1264.01 2260.38 1262.11 2263.09 1260.99C2265.8 1259.87 2268.79 1259.57 2271.67 1260.15C2274.55 1260.72 2277.2 1262.13 2279.27 1264.21C2281.35 1266.29 2282.76 1268.93 2283.34 1271.81C2283.91 1274.69 2283.62 1277.68 2282.5 1280.39C2281.37 1283.11 2279.47 1285.43 2277.03 1287.06C2274.59 1288.69 2271.72 1289.57 2268.78 1289.57Z" fill="url(#paint1_linear_645_667)"/>
<path d="M1009.74 830.413C1219.85 467.993 1475.73 352.67 1852.88 220.103C2136.79 120.312 2337.94 5.75493 2613.09 130.789C2801.44 216.377 2877.15 334.491 3000.11 510.372C3205.96 804.837 3298.31 1035.27 3283.46 1403.51C3263.46 1899.08 3057.24 2228.96 2661.47 2482.72C2293.41 2718.7 1971.42 2753.96 1569.53 2594.36C1225.28 2457.64 1004.88 2285.19 871.523 1917.06C726.971 1518.03 799.107 1193.74 1009.74 830.413Z" stroke="black" stroke-width="26"/>
<mask id="mask0_645_667" style="mask-type:luminance" maskUnits="userSpaceOnUse" x="2811" y="1179" width="257" height="385">
<path d="M3067.79 1179H2811V1564H3067.79V1179Z" fill="white"/>
</mask>
<g mask="url(#mask0_645_667)">
<path d="M2875.2 1564C2910.63 1564 2939.4 1535.25 2939.4 1499.83V1435.67H2875.2C2839.76 1435.67 2811 1464.41 2811 1499.83C2811 1535.25 2839.76 1564 2875.2 1564Z" fill="#0ACF83"/>
<path d="M2811 1371.5C2811 1336.08 2839.76 1307.33 2875.2 1307.33H2939.4V1435.67H2875.2C2839.76 1435.67 2811 1406.92 2811 1371.5Z" fill="#A259FF"/>
<path d="M2811 1243.17C2811 1207.75 2839.76 1179 2875.2 1179H2939.4V1307.33H2875.2C2839.76 1307.33 2811 1278.59 2811 1243.17Z" fill="#F24E1E"/>
<path d="M2939.39 1179H3003.59C3039.03 1179 3067.79 1207.75 3067.79 1243.17C3067.79 1278.59 3039.03 1307.33 3003.59 1307.33H2939.39V1179Z" fill="#FF7262"/>
<path d="M3067.79 1371.5C3067.79 1406.92 3039.03 1435.67 3003.59 1435.67C2968.16 1435.67 2939.39 1406.92 2939.39 1371.5C2939.39 1336.08 2968.16 1307.33 3003.59 1307.33C3039.03 1307.33 3067.79 1336.08 3067.79 1371.5Z" fill="#1ABCFE"/>
</g>
<path d="M552 1428L543.636 1418.05L543.636 1418.05L552 1428ZM408 1940L486.262 1811.91L336.198 1808.18L408 1940ZM1160 1428C1164.39 1415.76 1164.38 1415.76 1164.38 1415.76C1164.37 1415.76 1164.36 1415.75 1164.36 1415.75C1164.34 1415.75 1164.32 1415.74 1164.29 1415.73C1164.23 1415.71 1164.14 1415.68 1164.03 1415.64C1163.81 1415.56 1163.49 1415.45 1163.07 1415.3C1162.23 1415 1160.99 1414.57 1159.37 1414.02C1156.14 1412.92 1151.4 1411.33 1145.33 1409.36C1133.17 1405.44 1115.64 1400.02 1094.05 1394C1050.9 1381.96 991.393 1367.51 926.065 1357.86C860.807 1348.22 789.291 1343.31 722.274 1350.63C655.354 1357.95 591.788 1377.58 543.636 1418.05L560.363 1437.95C603.1 1402.04 660.978 1383.49 725.099 1376.48C789.123 1369.48 858.247 1374.12 922.266 1383.58C986.216 1393.02 1044.62 1407.2 1087.07 1419.04C1108.28 1424.96 1125.47 1430.27 1137.34 1434.11C1143.27 1436.02 1147.87 1437.56 1150.97 1438.62C1152.52 1439.15 1153.69 1439.56 1154.47 1439.84C1154.87 1439.97 1155.16 1440.08 1155.35 1440.14C1155.44 1440.18 1155.51 1440.2 1155.56 1440.22C1155.58 1440.23 1155.6 1440.23 1155.61 1440.24C1155.61 1440.24 1155.61 1440.24 1155.61 1440.24C1155.61 1440.24 1155.61 1440.24 1160 1428ZM543.636 1418.05C489.732 1463.35 455.677 1534.33 433.959 1608C412.16 1681.95 402.305 1760.28 397.94 1822.11L423.875 1823.94C428.171 1763.1 437.832 1686.81 458.898 1615.35C480.045 1543.62 512.206 1478.42 560.363 1437.95L543.636 1418.05Z" fill="black"/>
<path d="M255.629 2011.05C255.629 2057.2 219.52 2093.1 176.815 2093.1C134.109 2093.1 98 2057.2 98 2011.05C98 1964.9 134.109 1929 176.815 1929C219.52 1929 255.629 1964.9 255.629 2011.05Z" stroke="black" stroke-width="60"/>
<path d="M754 2227.68C754 2273.83 717.891 2309.73 675.186 2309.73C632.48 2309.73 596.371 2273.83 596.371 2227.68C596.371 2181.53 632.48 2145.63 675.186 2145.63C717.891 2145.63 754 2181.53 754 2227.68Z" stroke="black" stroke-width="60"/>
<path d="M455.848 2533.95C455.848 2580.1 419.739 2616 377.033 2616C334.328 2616 298.219 2580.1 298.219 2533.95C298.219 2487.8 334.328 2451.9 377.033 2451.9C419.739 2451.9 455.848 2487.8 455.848 2533.95Z" stroke="black" stroke-width="60"/>
<path d="M178.99 2102.18V2207.68C178.99 2218.73 187.945 2227.68 198.99 2227.68H602.642" stroke="black" stroke-width="50" stroke-miterlimit="16" stroke-dasharray="300 75"/>
<path d="M675.186 2320.31V2392.02H385.014V2445.8" stroke="black" stroke-width="50" stroke-linejoin="round" stroke-dasharray="300 75"/>
<defs>
<linearGradient id="paint0_linear_645_667" x1="2084.27" y1="1006.15" x2="2252.88" y2="1175.32" gradientUnits="userSpaceOnUse">
<stop stop-color="#387EB8"/>
<stop offset="1" stop-color="#366994"/>
</linearGradient>
<linearGradient id="paint1_linear_645_667" x1="2188" y1="1113.77" x2="2369.09" y2="1287.27" gradientUnits="userSpaceOnUse">
<stop stop-color="#FFE052"/>
<stop offset="1" stop-color="#FFC331"/>
</linearGradient>
<clipPath id="clip0_645_667">
<rect width="300" height="301" fill="white" transform="translate(2291 213)"/>
</clipPath>
<clipPath id="clip1_645_667">
<rect width="287" height="223" fill="white" transform="translate(1702 402)"/>
</clipPath>
<clipPath id="clip2_645_667">
<rect width="380" height="371" fill="white" transform="translate(1107 862)"/>
</clipPath>
<clipPath id="clip3_645_667">
<rect width="319" height="319" fill="white" transform="translate(1168 1828)"/>
</clipPath>
<clipPath id="clip4_645_667">
<rect width="315" height="325" fill="white" transform="translate(2569 1728)"/>
</clipPath>
<clipPath id="clip5_645_667">
<rect width="735" height="104" fill="white" transform="translate(1487 1512)"/>
</clipPath>
</defs>
</svg>
